<?xml version="1.0" standalone="no"?>
<!DOCTYPE svg PUBLIC "-//W3C//DTD SVG 20010904//EN"
 "http://www.w3.org/TR/2001/REC-SVG-20010904/DTD/svg10.dtd">
<svg version="1.0" xmlns="http://www.w3.org/2000/svg"
 width="300.000000pt" height="300.000000pt" viewBox="0 0 300.000000 300.000000"
 preserveAspectRatio="xMidYMid meet">
<metadata>
Created by potrace 1.10, written by Peter Selinger 2001-2011
</metadata>
<g transform="translate(0.000000,300.000000) scale(0.100000,-0.100000)"
fill="#000000" stroke="none">
<path d="M1488 2728 c-2 -18 -11 -24 -38 -28 l-34 -5 27 -18 c22 -14 26 -21
17 -37 -17 -31 -12 -45 8 -27 10 10 25 17 32 17 7 0 22 -7 32 -17 20 -18 25
-4 8 27 -8 15 -4 22 18 39 l27 20 -32 1 c-26 0 -34 5 -39 25 -8 31 -22 32 -26
3z"/>
<path d="M1297 2704 c-4 -4 -7 -16 -7 -26 0 -13 -8 -18 -27 -18 l-28 0 24 -19
c18 -14 22 -23 16 -42 l-8 -24 22 20 c18 16 25 17 41 7 28 -17 31 -15 18 14
-10 22 -10 28 5 39 23 17 21 23 -6 18 -17 -3 -26 1 -33 17 -5 12 -13 18 -17
14z"/>
<path d="M1696 2692 c-7 -20 -13 -23 -37 -20 l-29 5 19 -21 c14 -15 17 -26 11
-36 -16 -24 -11 -31 11 -20 17 9 25 8 41 -7 21 -18 21 -18 14 9 -5 21 -2 28
14 33 27 8 25 23 -2 27 -14 2 -24 12 -28 28 l-6 25 -8 -23z"/>
<path d="M1098 2591 c-124 -55 -212 -117 -310 -219 -190 -197 -277 -435 -265
-727 3 -71 9 -140 12 -153 10 -32 30 -21 28 14 -19 267 -11 356 46 522 81 234
290 452 516 539 85 33 79 28 68 47 -7 13 -21 10 -95 -23z"/>
<path d="M1815 2609 c-9 -13 -14 -10 86 -56 299 -139 492 -399 540 -723 12
-82 8 -289 -7 -339 -6 -19 -4 -22 12 -19 25 4 32 55 33 213 2 394 -203 725
-551 890 -105 50 -104 49 -113 34z"/>
<path d="M1495 2522 c-22 -11 -60 -41 -85 -67 -39 -42 -45 -54 -46 -94 -1 -64
-41 -145 -74 -149 -14 -2 -34 -12 -45 -22 -11 -10 -51 -23 -90 -29 -38 -7
-103 -21 -143 -33 -133 -39 -198 -128 -322 -443 -103 -260 -94 -293 102 -358
78 -26 98 -29 92 -13 -3 7 -45 30 -93 50 -49 20 -96 45 -105 55 -34 38 -24 94
54 286 78 193 137 295 201 346 l40 32 40 -18 c49 -22 93 -71 109 -120 20 -61
9 -164 -25 -230 -33 -64 -61 -87 -48 -38 18 64 -1 242 -24 220 -3 -4 -5 -40
-4 -81 l2 -75 -30 12 c-34 13 -58 -1 -63 -36 -2 -16 -12 -23 -40 -28 -44 -7
-68 -25 -68 -50 0 -12 -14 -25 -37 -36 -56 -27 -54 -44 3 -27 62 18 115 18
140 -2 15 -12 16 -16 5 -21 -8 -3 -39 -19 -69 -34 -30 -16 -56 -29 -59 -29
-11 0 23 34 52 52 l30 18 -55 0 c-60 0 -97 -14 -68 -25 9 -4 19 -17 22 -31 6
-23 45 -42 64 -30 5 3 15 -1 22 -9 7 -8 25 -15 41 -15 27 0 28 -2 22 -32 -13
-64 -7 -114 17 -138 27 -27 48 -15 61 36 6 24 17 49 25 55 20 17 72 -5 104
-43 22 -26 29 -29 46 -20 14 7 24 8 31 1 7 -7 18 -6 34 1 17 8 33 8 52 1 24
-9 26 -13 16 -34 -8 -18 -7 -36 4 -74 l15 -49 -29 -11 c-30 -12 -39 -39 -19
-59 6 -6 12 -19 14 -30 3 -10 7 -26 11 -35 4 -11 0 -18 -12 -21 -24 -6 -194
-1 -201 6 -3 3 23 34 56 68 34 35 62 68 62 75 0 6 -10 19 -21 27 -17 11 -27
12 -48 3 -35 -15 -104 -88 -125 -131 -9 -19 -22 -39 -29 -43 -15 -9 -375 -14
-381 -5 -5 8 33 174 54 237 16 48 26 56 57 44 34 -13 132 -14 144 -2 7 7 -6
12 -39 17 -28 3 -76 15 -108 26 -31 11 -58 19 -60 17 -9 -8 -57 -173 -71 -244
l-18 -84 -40 3 c-38 2 -40 1 -40 -27 0 -18 5 -30 13 -29 6 1 444 2 972 3 943
1 960 1 960 20 0 27 -5 29 -126 52 -110 21 -136 21 -84 -1 16 -7 30 -15 30
-19 0 -3 -133 -6 -295 -6 -271 0 -294 1 -289 17 8 27 -22 84 -70 133 -34 33
-42 47 -31 50 8 3 22 7 30 10 8 2 23 18 34 35 27 45 37 18 12 -31 l-21 -40 32
-30 c36 -33 87 -63 95 -56 2 3 18 1 34 -5 21 -7 33 -7 44 2 15 12 59 4 50 -10
-4 -7 -20 -11 -104 -27 -14 -2 -32 -9 -40 -14 -17 -11 166 -5 256 8 l48 7 -60
12 -60 12 45 1 c39 1 42 3 25 13 -11 6 -45 19 -75 28 -62 20 -85 50 -81 111 1
25 -4 41 -19 54 -11 10 -20 28 -20 41 0 13 -4 26 -10 29 -17 10 -11 20 20 33
17 8 30 21 30 31 0 19 38 41 71 41 27 0 72 -49 65 -73 -5 -21 12 -67 25 -67 4
0 17 -20 28 -45 11 -25 25 -45 30 -45 6 0 22 -22 36 -49 42 -84 58 -77 30 14
-10 34 -11 53 -4 61 7 9 5 26 -9 58 -11 24 -18 47 -15 50 10 9 -7 56 -20 56
-7 0 -23 20 -35 45 -39 81 -122 107 -214 66 -24 -10 -58 -23 -75 -29 -32 -10
-33 -9 -52 34 -17 38 -19 58 -14 148 5 85 3 113 -12 154 l-18 50 34 41 c31 38
37 42 71 38 43 -6 48 -1 107 100 37 63 41 74 30 94 -7 13 -11 56 -10 103 2
104 -16 144 -75 166 -22 8 -56 27 -75 41 -87 66 -182 85 -254 51z m178 -45
c26 -10 47 -23 47 -27 0 -4 -26 -7 -57 -6 -32 0 -80 -4 -107 -8 -68 -11 -51 9
22 25 l57 13 -37 10 c-21 5 -38 13 -38 18 0 11 57 -1 113 -25z m145 -83 c18
-7 36 -24 42 -39 11 -29 13 -127 4 -163 -8 -27 -25 -25 -137 13 l-67 23 -45
-76 c-25 -43 -43 -83 -40 -89 2 -7 0 -13 -5 -13 -5 0 -11 8 -15 19 -3 12 12
49 44 104 27 47 46 89 43 92 -9 10 34 -3 87 -26 46 -20 78 -25 49 -9 -10 6
-20 29 -24 58 -8 57 -26 95 -56 117 -22 16 -21 16 32 10 30 -4 70 -13 88 -21z
m-323 -8 c15 -23 15 -27 0 -50 -27 -41 -85 -30 -85 17 0 56 56 78 85 33z m164
8 c30 -22 57 -84 41 -94 -7 -4 -20 -5 -30 -3 -26 7 -64 -34 -111 -121 -38 -72
-41 -83 -31 -110 10 -26 9 -33 -8 -51 -11 -12 -20 -26 -20 -32 0 -19 -28 -22
-43 -5 -20 22 -36 65 -48 126 -14 74 13 162 55 180 41 17 66 47 70 82 5 43 79
60 125 28z m-269 -159 c-33 -97 -21 -179 42 -284 32 -53 86 -104 73 -68 -5 11
33 105 50 125 5 6 146 -31 143 -38 -9 -25 -121 -130 -144 -136 -62 -16 -143
70 -183 193 -25 75 -27 148 -4 205 33 87 53 90 23 3z m489 -102 c2 -1 -15 -33
-37 -71 l-41 -69 -98 18 c-54 10 -99 18 -101 19 -3 0 67 129 80 146 6 8 35 4
101 -14 50 -14 94 -27 96 -29z m-545 -131 c30 -59 32 -74 11 -65 -30 11 -80
166 -68 212 5 21 8 15 19 -35 7 -34 24 -84 38 -112z m-98 -40 c5 -61 7 -63 32
-61 79 6 91 1 114 -46 l22 -45 -38 -118 c-21 -64 -42 -122 -47 -128 -11 -13
-116 -27 -131 -18 -7 4 -3 11 9 18 25 14 83 63 83 70 0 3 -12 1 -26 -4 -14 -6
-43 -10 -65 -10 l-40 0 24 33 c31 41 52 84 61 122 6 30 6 29 -30 -12 -19 -24
-40 -43 -44 -43 -5 0 -2 19 6 43 19 52 22 158 6 214 -7 23 -28 59 -47 79 -20
20 -34 38 -32 40 2 2 18 -6 36 -17 21 -12 41 -38 56 -72 l24 -52 0 76 c1 85
15 117 18 42 2 -26 5 -76 9 -111z m423 -149 c14 -48 14 -115 1 -184 -9 -48 -8
-57 10 -81 26 -35 25 -38 -5 -38 -17 0 -25 6 -25 18 -1 12 -14 3 -45 -30 -43
-48 -73 -59 -93 -35 -8 9 -5 21 10 45 24 38 38 41 38 8 0 -14 4 -27 9 -30 8
-5 18 11 48 84 15 34 15 35 -4 18 -29 -27 -47 -23 -28 5 19 30 55 134 55 161
0 15 -9 6 -28 -29 -15 -27 -60 -100 -99 -160 l-72 -110 -45 3 c-26 2 -46 7
-46 10 0 3 23 46 50 95 52 90 94 186 86 194 -2 2 -25 -32 -52 -76 -26 -44 -49
-79 -50 -78 -2 2 8 38 21 80 14 43 25 83 25 89 0 6 7 19 15 28 14 16 20 16 57
3 47 -16 94 -6 123 27 25 28 33 25 44 -17z m-655 -117 c35 -73 9 -163 -31
-106 -18 26 -71 50 -110 50 -22 0 -25 2 -13 10 22 14 65 12 105 -5 l35 -14 -6
27 c-3 15 -10 40 -15 56 -12 38 -12 41 5 27 8 -7 21 -27 30 -45z m125 -43 c-8
-21 -6 -30 9 -47 11 -12 22 -35 25 -52 l6 -32 -62 16 c-34 9 -63 17 -65 18
-10 5 78 121 95 124 1 0 -2 -12 -8 -27z m-121 -130 c2 -7 -3 -13 -11 -13 -8 0
-36 -11 -63 -25 l-49 -26 43 41 c41 40 71 48 80 23z m239 -63 c16 0 27 -7 30
-20 4 -14 13 -19 37 -18 17 1 69 1 116 0 l85 -2 53 -61 c53 -62 64 -96 37
-119 -12 -10 -15 -10 -15 2 0 7 -20 34 -45 58 -51 50 -56 46 -20 -17 21 -34
24 -47 15 -63 -14 -26 -30 -26 -30 1 0 12 -11 34 -25 51 -22 26 -25 27 -25 9
0 -11 7 -36 17 -55 13 -29 14 -38 3 -51 -17 -21 -33 -19 -25 3 3 11 -3 29 -15
45 -11 14 -20 31 -20 39 -1 9 -4 8 -10 -4 -7 -11 -7 -26 0 -43 14 -38 12 -65
-5 -65 -8 0 -15 5 -15 10 0 6 -9 29 -19 51 l-20 41 35 34 c18 19 34 38 34 42
0 4 -35 13 -77 20 -75 12 -79 12 -95 -9 -18 -21 -18 -21 -18 -1 0 11 4 32 10
46 5 14 6 26 1 26 -12 0 -28 -21 -52 -66 l-20 -39 5 48 c5 44 4 47 -17 47 -38
0 -112 27 -109 40 1 6 -3 8 -9 5 -19 -13 -49 -88 -49 -128 0 -23 -4 -36 -10
-32 -20 12 -11 104 15 155 40 78 51 82 146 49 44 -16 92 -29 106 -29z m728 42
c31 -19 84 -102 66 -102 -6 0 -17 13 -26 29 -19 38 -62 71 -92 71 -13 0 -40
-7 -60 -15 -49 -21 -54 -11 -6 14 48 25 80 26 118 3z m-159 -67 l7 -30 -19 23
-20 24 -47 -23 c-26 -13 -47 -30 -47 -38 -1 -13 -3 -12 -11 2 -13 22 -15 20
52 61 60 36 72 33 85 -19z m-113 39 c4 -4 -23 -22 -60 -40 -41 -21 -71 -30
-76 -25 -6 6 7 18 32 30 22 12 41 26 41 31 0 11 53 14 63 4z m-40 -102 c14
-16 15 -21 3 -37 -13 -18 -14 -17 -30 8 -27 40 -4 64 27 29z m423 9 c-8 -12
-66 -32 -66 -22 0 9 39 29 58 30 7 1 11 -3 8 -8z m-362 -68 c-10 -7 -27 -13
-38 -13 -22 0 -18 6 21 30 32 19 47 5 17 -17z m376 -9 c17 -50 5 -54 -18 -5
-11 22 -17 42 -14 45 9 10 20 -4 32 -40z m-316 -11 c-4 -16 -1 -25 10 -29 9
-4 16 -18 16 -34 0 -15 7 -46 14 -68 10 -27 11 -44 5 -48 -6 -3 -13 3 -16 14
-5 19 -7 19 -39 6 -51 -21 -58 -17 -30 17 36 43 33 49 -17 31 -28 -10 -50 -12
-63 -7 -17 8 -17 9 6 13 25 4 70 38 70 54 0 5 -9 4 -21 -2 -31 -17 -34 -5 -4
14 14 9 33 33 42 52 18 37 37 28 27 -13z m-153 -215 c16 -27 29 -50 29 -53 0
-3 -69 -5 -154 -5 -151 0 -154 0 -149 21 4 14 -4 31 -28 55 -36 38 -35 41 7
19 16 -8 34 -15 39 -15 6 0 23 7 39 15 15 8 36 15 45 15 9 1 32 9 51 19 33 18
35 18 63 -2 15 -12 41 -43 58 -69z m-502 2 c-44 -44 -85 -80 -90 -80 -13 0 86
114 121 140 60 45 44 14 -31 -60z"/>
<path d="M1441 2380 c-7 -4 -11 -18 -9 -31 5 -35 42 -33 46 2 3 28 -16 43 -37
29z"/>
<path d="M1668 2101 l-28 -49 63 -11 c90 -16 89 -16 119 33 l26 44 -70 16
c-39 9 -73 16 -77 16 -3 0 -18 -22 -33 -49z m101 -10 c11 -7 10 -10 -6 -15
-24 -8 -55 2 -47 15 7 11 35 11 53 0z"/>
<path d="M1986 2239 c-27 -44 -46 -83 -43 -86 6 -5 97 145 97 159 0 16 -7 6
-54 -73z"/>
<path d="M2094 2165 c-77 -86 -307 -385 -301 -392 6 -5 158 178 272 327 48 63
92 121 98 128 5 6 7 12 4 12 -3 0 -36 -34 -73 -75z"/>
<path d="M2190 2063 c-86 -73 -205 -190 -293 -288 l-72 -80 65 55 c93 79 376
357 370 363 -3 3 -34 -19 -70 -50z"/>
<path d="M1001 2038 c7 -13 20 -34 29 -48 20 -29 32 -70 20 -70 -4 0 3 -21 16
-47 13 -25 24 -58 24 -72 0 -21 2 -23 10 -11 29 44 -3 180 -54 235 -39 41 -63
48 -45 13z"/>
<path d="M2237 1916 c-97 -61 -373 -266 -358 -266 19 0 451 302 451 315 0 8
-4 6 -93 -49z"/>
<path d="M2300 1779 c-73 -26 -334 -153 -323 -156 17 -6 383 159 383 172 0 3
-1 5 -2 4 -2 0 -28 -9 -58 -20z"/>
<path d="M2310 1629 c-108 -19 -206 -43 -215 -51 -10 -9 4 -7 160 24 55 10
104 23 110 29 10 10 9 10 -55 -2z"/>
<path d="M2154 1495 c-4 -14 -3 -29 1 -33 8 -8 35 26 35 45 0 24 -29 14 -36
-12z"/>
<path d="M2255 1429 c-9 -17 -14 -33 -11 -36 6 -7 56 43 56 57 0 22 -30 8 -45
-21z"/>
<path d="M2180 1325 c-14 -36 -25 -122 -15 -113 9 8 35 131 30 137 -3 2 -9 -9
-15 -24z"/>
<path d="M2340 1305 c-19 -23 -8 -37 18 -20 12 9 22 20 22 26 0 14 -26 11 -40
-6z"/>
<path d="M2238 1258 c-31 -41 -48 -73 -48 -90 0 -7 19 16 41 50 43 68 48 94 7
40z"/>
<path d="M1970 1250 c32 -45 100 -113 107 -106 8 7 -56 83 -96 113 l-36 28 25
-35z"/>
<path d="M1003 1250 c-13 -5 -23 -16 -23 -24 0 -38 95 -50 126 -15 18 20 18
21 -1 35 -21 16 -68 17 -102 4z m107 -19 c0 -12 -96 -25 -112 -14 -8 5 9 10
47 14 33 3 61 6 63 7 1 1 2 -2 2 -7z"/>
<path d="M1944 1174 c54 -49 124 -93 96 -60 -19 24 -126 106 -137 106 -4 -1
14 -21 41 -46z"/>
<path d="M2300 1189 c-30 -16 -62 -37 -70 -45 -13 -14 -12 -14 15 -4 38 15
115 63 115 73 0 10 2 10 -60 -24z"/>
<path d="M2363 1133 c-24 -9 -13 -23 18 -23 20 0 29 4 27 13 -5 13 -26 18 -45
10z"/>
<path d="M2261 1101 c-11 -7 -9 -10 8 -16 24 -7 44 2 36 16 -8 11 -26 11 -44
0z"/>
<path d="M330 740 l0 -130 31 0 c31 0 31 1 28 44 l-4 44 40 5 c49 7 75 36 75
86 0 58 -31 81 -108 81 l-62 0 0 -130z m116 68 c3 -5 3 -20 0 -34 -5 -18 -13
-24 -34 -24 -25 0 -27 3 -25 37 1 21 2 39 2 39 3 5 53 -10 57 -18z"/>
<path d="M540 739 l0 -130 28 3 c26 3 27 4 24 61 -2 31 0 57 5 57 5 0 21 -24
35 -54 24 -48 31 -54 62 -58 20 -2 36 -3 36 -1 0 1 -18 32 -40 68 l-40 66 35
55 c19 30 35 57 35 59 0 3 -13 5 -30 5 -26 0 -33 -7 -60 -60 -17 -33 -33 -60
-36 -60 -4 0 -4 27 -2 60 l4 60 -28 0 -28 0 0 -131z"/>
<path d="M890 828 c-6 -24 -22 -80 -36 -124 -13 -45 -24 -85 -24 -88 0 -3 13
-6 29 -6 25 0 31 5 36 31 6 28 10 30 43 27 29 -2 37 -8 42 -28 4 -18 13 -26
33 -28 15 -2 27 0 27 5 1 4 -14 63 -32 130 l-33 123 -37 0 c-35 0 -38 -2 -48
-42z m64 -80 c7 -36 6 -38 -20 -38 -18 0 -25 4 -21 14 3 8 9 31 13 52 8 41 17
32 28 -28z"/>
<path d="M1078 745 l3 -125 70 0 c68 0 69 0 69 26 0 26 -1 27 -45 21 l-45 -7
0 105 0 105 -27 0 -28 0 3 -125z"/>
<path d="M1248 763 c3 -102 4 -109 29 -132 21 -19 34 -22 66 -18 67 9 75 24
79 148 l3 109 -27 0 -27 0 -3 -96 c-2 -77 -6 -99 -20 -107 -12 -8 -21 -7 -32
2 -13 11 -16 34 -16 107 l0 94 -27 0 -28 0 3 -107z"/>
<path d="M1470 745 l0 -125 26 0 27 0 -6 85 c-4 53 -2 83 3 80 6 -4 10 -12 10
-19 0 -7 7 -36 15 -64 14 -46 19 -52 43 -52 26 0 29 5 48 73 l19 72 3 -87 c3
-86 3 -88 27 -88 l25 0 0 125 0 125 -39 0 -38 0 -18 -67 c-10 -38 -21 -72 -25
-76 -4 -4 -17 26 -29 68 -22 74 -23 75 -57 75 l-34 0 0 -125z"/>
<path d="M1760 745 l0 -125 25 0 25 0 0 125 0 125 -25 0 -25 0 0 -125z"/>
<path d="M1860 745 l0 -125 25 0 c24 0 25 2 25 78 l1 77 39 -76 c34 -66 43
-77 70 -81 l30 -5 0 129 0 128 -28 0 -29 0 5 -76 c3 -45 1 -75 -4 -71 -5 3
-25 37 -44 76 -30 63 -37 71 -62 71 l-28 0 0 -125z"/>
<path d="M2095 745 l0 -125 28 0 27 0 0 125 0 125 -27 0 -28 0 0 -125z"/>
<path d="M2200 771 c0 -116 3 -127 41 -146 43 -23 77 -18 110 14 28 29 29 32
29 130 l0 101 -30 0 -30 0 0 -100 c0 -84 -3 -102 -16 -107 -38 -14 -49 10 -52
111 -3 95 -3 96 -27 96 -25 0 -25 0 -25 -99z"/>
<path d="M2425 745 l0 -125 29 0 29 0 -5 85 c-2 47 -1 85 4 85 4 0 8 -7 8 -16
0 -9 7 -41 16 -71 14 -50 18 -54 42 -51 24 3 29 10 44 67 9 35 20 66 23 70 4
3 5 -35 4 -84 l-2 -90 26 -3 27 -3 0 130 0 131 -39 0 -39 0 -17 -67 c-10 -38
-21 -71 -25 -75 -3 -5 -16 26 -28 67 l-22 75 -38 0 -37 0 0 -125z"/>
<path d="M600 515 c0 -3 5 -26 11 -51 13 -52 35 -57 48 -11 l9 32 7 -32 c4
-18 14 -33 21 -33 8 0 14 1 14 3 0 1 7 23 15 50 12 39 12 47 1 47 -8 0 -17
-17 -21 -37 l-8 -38 -10 38 c-9 38 -24 48 -32 22 -15 -48 -18 -50 -24 -21 -5
25 -31 51 -31 31z"/>
<path d="M770 470 c0 -49 1 -50 30 -50 17 0 30 5 30 10 0 6 -9 10 -20 10 -11
0 -20 5 -20 10 0 6 9 10 20 10 11 0 20 5 20 10 0 6 -9 10 -20 10 -11 0 -20 5
-20 10 0 6 9 10 20 10 11 0 20 5 20 10 0 6 -13 10 -30 10 -29 0 -30 -1 -30
-50z"/>
<path d="M870 470 l0 -50 35 0 c19 0 35 5 35 10 0 6 -12 10 -26 10 -24 0 -26
3 -22 40 2 28 0 40 -9 40 -9 0 -13 -16 -13 -50z"/>
<path d="M960 470 c0 -50 0 -50 33 -50 38 0 57 15 57 46 0 31 -26 54 -61 54
-28 0 -29 -1 -29 -50z m60 15 c15 -18 6 -45 -15 -45 -10 0 -15 10 -15 30 0 33
11 38 30 15z"/>
<path d="M1080 470 c0 -38 4 -50 15 -50 11 0 15 12 15 50 0 38 -4 50 -15 50
-11 0 -15 -12 -15 -50z"/>
<path d="M1148 470 c-2 -35 1 -50 10 -50 6 0 12 12 12 28 l1 27 20 -27 c30
-40 39 -35 39 22 0 28 -4 50 -10 50 -5 0 -10 -15 -10 -32 l0 -33 -21 33 c-12
17 -25 32 -29 32 -4 0 -10 -23 -12 -50z"/>
<path d="M1275 496 c-18 -28 -9 -58 24 -75 22 -12 61 12 61 38 0 14 -6 17 -27
13 -25 -5 -25 -6 -7 -19 18 -14 18 -14 -6 -11 -19 2 -25 9 -25 28 0 21 4 25
28 23 36 -3 31 21 -6 25 -19 2 -30 -4 -42 -22z"/>
<path d="M1457 514 c-16 -16 -6 -44 18 -50 36 -9 31 -27 -5 -19 -24 5 -29 4
-24 -8 13 -34 74 -23 74 13 0 13 -9 22 -25 26 -14 3 -25 11 -25 16 0 6 11 7
26 4 19 -5 25 -3 22 6 -5 14 -50 23 -61 12z"/>
<path d="M1565 496 c-31 -48 18 -102 64 -69 23 16 28 62 9 81 -20 20 -56 14
-73 -12z m60 -26 c0 -18 -6 -26 -22 -28 -18 -3 -23 1 -23 21 0 28 9 39 30 35
9 -2 15 -14 15 -28z"/>
<path d="M1690 470 c0 -49 1 -50 30 -50 17 0 30 5 30 10 0 6 -9 10 -20 10 -17
0 -20 7 -20 40 0 22 -4 40 -10 40 -5 0 -10 -22 -10 -50z"/>
<path d="M1780 475 c0 -50 19 -69 58 -54 18 7 22 16 22 54 0 54 -18 61 -22 8
-2 -27 -8 -39 -20 -41 -15 -3 -18 4 -18 37 0 23 -4 41 -10 41 -5 0 -10 -20
-10 -45z"/>
<path d="M1890 510 c0 -5 7 -10 15 -10 11 0 15 -11 15 -40 0 -22 5 -40 10 -40
6 0 10 18 10 40 0 29 4 40 15 40 8 0 15 5 15 10 0 6 -18 10 -40 10 -22 0 -40
-4 -40 -10z"/>
<path d="M2000 470 c0 -33 4 -50 13 -50 8 0 12 17 12 50 0 33 -4 50 -12 50 -9
0 -13 -17 -13 -50z"/>
<path d="M2076 504 c-22 -21 -20 -50 4 -74 24 -24 29 -24 58 -4 39 27 19 94
-28 94 -10 0 -26 -7 -34 -16z m53 -18 c15 -18 3 -46 -19 -46 -10 0 -21 7 -24
16 -6 16 9 44 24 44 4 0 13 -6 19 -14z"/>
<path d="M2190 470 c0 -38 4 -50 15 -50 11 0 14 7 9 25 -3 14 -2 25 3 25 6 0
15 -11 21 -25 20 -44 42 -31 42 25 0 37 -4 50 -15 50 -11 0 -13 -8 -9 -32 l6
-33 -21 25 c-11 14 -21 28 -21 33 0 4 -7 7 -15 7 -11 0 -15 -12 -15 -50z"/>
<path d="M2327 514 c-16 -16 -6 -45 18 -54 35 -13 31 -24 -5 -16 -34 6 -40 -8
-10 -24 14 -8 26 -8 40 0 29 15 26 48 -5 56 -14 3 -25 10 -25 15 0 5 12 6 26
3 20 -5 25 -3 22 7 -5 15 -49 24 -61 13z"/>
<path d="M400 470 c0 -6 30 -10 70 -10 40 0 70 4 70 10 0 6 -30 10 -70 10 -40
0 -70 -4 -70 -10z"/>
<path d="M2450 470 c0 -6 32 -10 75 -10 43 0 75 4 75 10 0 6 -32 10 -75 10
-43 0 -75 -4 -75 -10z"/>
</g>
</svg>
